2200 0 1 0           
15 SolidWorks 2017 12 ACIS 22.0 NT 24 Fri Nov 16 23:58:29 2018 
1 9.9999999999999995e-007 1e-010 
-0 body $1 -1 -1 $-1 $2 $-1 $-1 F #
-1 name_attrib-gen-attrib $-1 -1 $-1 $-1 $0 2 1 1 1 1 1 1 1 1 1 1 1 1 1 0 1 1 1 @18 igeus_bearing_80mm #
-2 lump $3 -1 -1 $-1 $-1 $4 $0 F #
-3 rgb_color-st-attrib $-1 -1 $-1 $-1 $2 2 1 2 1 1 1 1 1 1 1 1 1 1 1 0 1 1 1 0.792156862745098 0.81960784313725488 0.93333333333333335 #
-4 shell $-1 -1 -1 $-1 $-1 $-1 $5 $-1 $2 F #
-5 face $6 -1 -1 $-1 $7 $8 $4 $-1 $9 forward single F T 3.3617604580795235 3.5450937914128571 0 3.1415926535897931 #
-6 integer_attrib-name_attrib-gen-attrib $-1 -1 $10 $-1 $5 2 1 2 1 1 1 1 1 1 1 1 1 1 1 0 1 1 1 @12 Cut-Extrude1 0 #
-7 face $11 -1 -1 $-1 $12 $13 $4 $-1 $14 reversed single F T 36.141125496954253 42.541125496954244 -3.1415926535897931 0 #
-8 loop $-1 -1 -1 $-1 $-1 $15 $5 F unknown #
-9 cone-surface $-1 -1 -1 $-1 0 -95.852813742385706 0 0 1 0 0 0 30 1 I I 0 1 30 forward I I I I #
-10 rgb_color-st-attrib $-1 -1 $-1 $6 $5 2 1 2 1 1 1 1 1 1 1 1 1 1 1 0 1 1 1 0.84313725490196079 0.81568627450980391 0.75294117647058822 #
-11 integer_attrib-name_attrib-gen-attrib $-1 -1 $16 $-1 $7 2 1 2 1 1 1 1 1 1 1 1 1 1 1 0 1 1 1 @12 Cut-Extrude1 0 #
-12 face $17 -1 -1 $-1 $18 $19 $4 $-1 $20 forward single F T 3.0117604580795234 3.195093791412857 0 3.1415926535897931 #
-13 loop $-1 -1 -1 $-1 $-1 $21 $7 F unknown #
-14 cone-surface $-1 -1 -1 $-1 13.206887407712687 -95.852813742385706 -7.6250000000000071 0 1 0 0 0 2.5000000000000022 1 I I 0 1 2.5000000000000022 forward I I I I #
-15 coedge $-1 -1 -1 $-1 $22 $23 $24 $25 forward $8 $-1 #
-16 rgb_color-st-attrib $-1 -1 $-1 $11 $7 2 1 2 1 1 1 1 1 1 1 1 1 1 1 0 1 1 1 0.84313725490196079 0.81568627450980391 0.75294117647058822 #
-17 integer_attrib-name_attrib-gen-attrib $-1 -1 $26 $-1 $12 2 1 2 1 1 1 1 1 1 1 1 1 1 1 0 1 1 1 @12 Cut-Extrude1 0 #
-18 face $27 -1 -1 $-1 $28 $29 $4 $-1 $30 reversed single F T 36.141125496954253 42.541125496954244 -3.1415926535897931 0 #
-19 loop $-1 -1 -1 $-1 $-1 $31 $12 F unknown #
-20 cone-surface $-1 -1 -1 $-1 0 -95.852813742385706 0 0 1 0 0 0 30 1 I I 0 1 30 forward I I I I #
-21 coedge $-1 -1 -1 $-1 $32 $33 $34 $35 forward $13 $-1 #
-22 coedge $-1 -1 -1 $-1 $36 $15 $37 $38 forward $8 $-1 #
-23 coedge $-1 -1 -1 $-1 $15 $36 $39 $40 reversed $8 $-1 #
-24 coedge $-1 -1 -1 $-1 $41 $41 $15 $25 reversed $42 $-1 #
-25 edge $-1 -1 -1 $-1 $43 0 $44 3.1415926535897931 $15 $45 forward @7 unknown F #
-26 rgb_color-st-attrib $-1 -1 $-1 $17 $12 2 1 2 1 1 1 1 1 1 1 1 1 1 1 0 1 1 1 0.84313725490196079 0.81568627450980391 0.75294117647058822 #
-27 integer_attrib-name_attrib-gen-attrib $-1 -1 $46 $-1 $18 2 1 2 1 1 1 1 1 1 1 1 1 1 1 0 1 1 1 @12 Cut-Extrude1 0 #
-28 face $47 -1 -1 $-1 $48 $49 $4 $-1 $50 reversed single F T 36.141125496954288 42.541125496954287 -3.1415926535897931 0 #
-29 loop $-1 -1 -1 $-1 $-1 $51 $18 F unknown #
-30 cone-surface $-1 -1 -1 $-1 0 -95.852813742385706 15.25 0 1 0 0 0 2.5000000000000022 1 I I 0 1 2.5000000000000022 forward I I I I #
-31 coedge $-1 -1 -1 $-1 $52 $53 $54 $55 reversed $19 $-1 #
-32 coedge $-1 -1 -1 $-1 $56 $21 $57 $58 forward $13 $-1 #
-33 coedge $-1 -1 -1 $-1 $21 $56 $59 $60 reversed $13 $-1 #
-34 coedge $-1 -1 -1 $-1 $61 $61 $21 $35 reversed $62 $-1 #
-35 edge $-1 -1 -1 $-1 $63 0 $64 3.1415926535897931 $21 $65 forward @7 unknown F #
-36 coedge $-1 -1 -1 $-1 $23 $22 $66 $67 reversed $8 $-1 #
-37 coedge $-1 -1 -1 $-1 $68 $69 $22 $38 reversed $70 $-1 #
-38 edge $-1 -1 -1 $-1 $44 0.10085281374238571 $71 0.10635281374238571 $22 $72 forward @7 unknown F #
-39 coedge $-1 -1 -1 $-1 $69 $68 $23 $40 forward $70 $-1 #
-40 edge $-1 -1 -1 $-1 $43 0.10085281374238571 $73 0.10635281374238571 $39 $74 forward @7 unknown F #
-41 coedge $-1 -1 -1 $-1 $24 $24 $68 $75 reversed $42 $-1 #
-42 loop $-1 -1 -1 $-1 $76 $24 $77 F unknown #
-43 vertex $-1 -1 -1 $-1 $75 $78 #
-44 vertex $-1 -1 -1 $-1 $38 $79 #
-45 ellipse-curve $-1 -1 -1 $-1 0 5.0000000000000044 0 0 1 0 0 0 30 1 I I #
-46 rgb_color-st-attrib $-1 -1 $-1 $27 $18 2 1 2 1 1 1 1 1 1 1 1 1 1 1 0 1 1 1 0.84313725490196079 0.81568627450980391 0.75294117647058822 #
-47 integer_attrib-name_attrib-gen-attrib $-1 -1 $80 $-1 $28 2 1 2 1 1 1 1 1 1 1 1 1 1 1 0 1 1 1 @12 Cut-Extrude1 0 #
-48 face $81 -1 -1 $-1 $82 $83 $4 $-1 $84 reversed single F T 9.0352813742385703 10.63528137423857 -3.1415926535897931 0 #
-49 loop $-1 -1 -1 $-1 $-1 $85 $28 F unknown #
-50 cone-surface $-1 -1 -1 $-1 -13.206887407712692 -95.852813742385706 -7.6249999999999973 0 1 0 0 0 2.4999999999999996 1 I I 0 1 2.4999999999999996 forward I I I I #
-51 coedge $-1 -1 -1 $-1 $86 $87 $88 $89 forward $29 $-1 #
-52 coedge $-1 -1 -1 $-1 $90 $31 $91 $92 forward $19 $-1 #
-53 coedge $-1 -1 -1 $-1 $31 $90 $93 $94 reversed $19 $-1 #
-54 coedge $-1 -1 -1 $-1 $95 $95 $31 $55 forward $96 $-1 #
-55 edge $-1 -1 -1 $-1 $97 -3.1415926535897931 $98 0 $54 $99 forward @7 unknown F #
-56 coedge $-1 -1 -1 $-1 $33 $32 $100 $101 forward $13 $-1 #
-57 coedge $-1 -1 -1 $-1 $102 $103 $32 $58 reversed $104 $-1 #
-58 edge $-1 -1 -1 $-1 $64 0.090352813742385713 $105 0.10635281374238571 $32 $106 forward @7 unknown F #
-59 coedge $-1 -1 -1 $-1 $103 $102 $33 $60 forward $104 $-1 #
-60 edge $-1 -1 -1 $-1 $63 0.090352813742385713 $107 0.10635281374238571 $59 $108 forward @7 unknown F #
-61 coedge $-1 -1 -1 $-1 $34 $34 $102 $109 reversed $62 $-1 #
-62 loop $-1 -1 -1 $-1 $110 $34 $111 F unknown #
-63 vertex $-1 -1 -1 $-1 $109 $112 #
-64 vertex $-1 -1 -1 $-1 $58 $113 #
-65 ellipse-curve $-1 -1 -1 $-1 13.206887407712687 -5.5000000000000053 -7.6250000000000071 -0 -1 -0 0 0 2.5000000000000022 1 I I #
-66 coedge $-1 -1 -1 $-1 $114 $114 $36 $67 forward $115 $-1 #
-67 edge $-1 -1 -1 $-1 $73 0 $71 3.1415926535897931 $66 $116 forward @7 unknown F #
-68 coedge $-1 -1 -1 $-1 $39 $37 $41 $75 forward $70 $-1 #
-69 coedge $-1 -1 -1 $-1 $37 $39 $114 $117 reversed $70 $-1 #
-70 loop $-1 -1 -1 $-1 $-1 $37 $118 F unknown #
-71 vertex $-1 -1 -1 $-1 $38 $119 #
-72 straight-curve $-1 -1 -1 $-1 3.6739403974420592e-015 -95.852813742385706 -30 0 1000 0 I I #
-73 vertex $-1 -1 -1 $-1 $117 $120 #
-74 straight-curve $-1 -1 -1 $-1 0 -95.852813742385706 30 0 1000 0 I I #
-75 edge $-1 -1 -1 $-1 $44 -3.1415926535897931 $43 0 $68 $121 forward @7 unknown F #
-76 loop $-1 -1 -1 $-1 $122 $123 $77 F unknown #
-77 face $124 -1 -1 $-1 $125 $42 $4 $-1 $126 forward single F F #
-78 point $-1 -1 -1 $-1 0 5.0000000000000044 30 #
-79 point $-1 -1 -1 $-1 3.6739403974420592e-015 5.0000000000000044 -30 #
-80 rgb_color-st-attrib $-1 -1 $-1 $47 $28 2 1 2 1 1 1 1 1 1 1 1 1 1 1 0 1 1 1 0.84313725490196079 0.81568627450980391 0.75294117647058822 #
-81 integer_attrib-name_attrib-gen-attrib $-1 -1 $127 $-1 $48 2 1 2 1 1 1 1 1 1 1 1 1 1 1 0 1 1 1 @12 Cut-Extrude1 0 #
-82 face $128 -1 -1 $-1 $129 $130 $4 $-1 $131 reversed single F T 0 2.2222222222222205 -3.1415926535897931 0 #
-83 loop $-1 -1 -1 $-1 $-1 $132 $48 F unknown #
-84 cone-surface $-1 -1 -1 $-1 0 -95.852813742385706 0 0 1 0 0 0 10 1 I I 0 1 10 forward I I I I #
-85 coedge $-1 -1 -1 $-1 $133 $134 $135 $136 forward $49 $-1 #
-86 coedge $-1 -1 -1 $-1 $137 $51 $138 $139 forward $29 $-1 #
-87 coedge $-1 -1 -1 $-1 $51 $137 $140 $141 reversed $29 $-1 #
-88 coedge $-1 -1 -1 $-1 $142 $142 $51 $89 reversed $143 $-1 #
-89 edge $-1 -1 -1 $-1 $144 0 $145 3.1415926535897931 $51 $146 forward @7 unknown F #
-90 coedge $-1 -1 -1 $-1 $53 $52 $147 $148 reversed $19 $-1 #
-91 coedge $-1 -1 -1 $-1 $149 $150 $52 $92 reversed $151 $-1 #
-92 edge $-1 -1 -1 $-1 $97 0.090352813742385713 $152 0.095852813742385704 $52 $153 forward @7 unknown F #
-93 coedge $-1 -1 -1 $-1 $150 $149 $53 $94 forward $151 $-1 #
-94 edge $-1 -1 -1 $-1 $98 0.090352813742385713 $154 0.095852813742385704 $93 $155 forward @7 unknown F #
-95 coedge $-1 -1 -1 $-1 $54 $54 $149 $156 forward $96 $-1 #
-96 loop $-1 -1 -1 $-1 $143 $95 $111 F unknown #
-97 vertex $-1 -1 -1 $-1 $92 $157 #
-98 vertex $-1 -1 -1 $-1 $55 $158 #
-99 ellipse-curve $-1 -1 -1 $-1 0 -5.5000000000000053 0 -0 -1 -0 0 0 30 1 I I #
-100 coedge $-1 -1 -1 $-1 $159 $159 $56 $101 reversed $160 $-1 #
-101 edge $-1 -1 -1 $-1 $105 -3.1415926535897931 $107 0 $56 $161 forward @7 unknown F #
-102 coedge $-1 -1 -1 $-1 $59 $57 $61 $109 forward $104 $-1 #
-103 coedge $-1 -1 -1 $-1 $57 $59 $159 $162 forward $104 $-1 #
-104 loop $-1 -1 -1 $-1 $-1 $57 $163 F unknown #
-105 vertex $-1 -1 -1 $-1 $58 $164 #
-106 straight-curve $-1 -1 -1 $-1 13.206887407712687 -95.852813742385706 -10.125000000000009 0 1000 0 I I #
-107 vertex $-1 -1 -1 $-1 $101 $165 #
-108 straight-curve $-1 -1 -1 $-1 13.206887407712687 -95.852813742385706 -5.1250000000000044 0 1000 0 I I #
-109 edge $-1 -1 -1 $-1 $64 -3.1415926535897931 $63 0 $102 $166 forward @7 unknown F #
-110 loop $-1 -1 -1 $-1 $167 $135 $111 F unknown #
-111 face $168 -1 -1 $-1 $163 $96 $4 $-1 $169 reversed single F F #
-112 point $-1 -1 -1 $-1 13.206887407712687 -5.5000000000000053 -5.1250000000000044 #
-113 point $-1 -1 -1 $-1 13.206887407712687 -5.5000000000000053 -10.125000000000009 #
-114 coedge $-1 -1 -1 $-1 $66 $66 $69 $117 forward $115 $-1 #
-115 loop $-1 -1 -1 $-1 $170 $66 $171 F unknown #
-116 ellipse-curve $-1 -1 -1 $-1 0 10.499999999999998 0 0 1 0 0 0 30 1 I I #
-117 edge $-1 -1 -1 $-1 $71 -3.1415926535897931 $73 0 $114 $172 forward @7 unknown F #
-118 face $173 -1 -1 $-1 $171 $70 $4 $-1 $174 forward single F T 3.3617604580795235 3.5450937914128571 -3.1415926535897931 0 #
-119 point $-1 -1 -1 $-1 3.6739403974420592e-015 10.499999999999998 -30 #
-120 point $-1 -1 -1 $-1 0 10.499999999999998 30 #
-121 ellipse-curve $-1 -1 -1 $-1 0 5.0000000000000044 0 0 1 0 0 0 30 1 I I #
-122 loop $-1 -1 -1 $-1 $175 $176 $77 F unknown #
-123 coedge $-1 -1 -1 $-1 $177 $177 $178 $179 reversed $76 $-1 #
-124 integer_attrib-name_attrib-gen-attrib $-1 -1 $180 $-1 $77 2 1 2 1 1 1 1 1 1 1 1 1 1 1 0 1 1 1 @12 Cut-Extrude1 0 #
-125 face $181 -1 -1 $-1 $182 $183 $4 $-1 $184 reversed single F F #
-126 plane-surface $-1 -1 -1 $-1 0 5 0 0 1 0 0 0 1000 forward_v I I I I #
-127 rgb_color-st-attrib $-1 -1 $-1 $81 $48 2 1 2 1 1 1 1 1 1 1 1 1 1 1 0 1 1 1 0.84313725490196079 0.81568627450980391 0.75294117647058822 #
-128 integer_attrib-name_attrib-gen-attrib $-1 -1 $185 $-1 $82 2 1 2 1 1 1 1 1 1 1 1 1 1 1 0 1 1 1 @12 Cut-Extrude1 0 #
-129 face $186 -1 -1 $-1 $187 $188 $4 $-1 $189 reversed single F T 0 2.2222222222222219 -3.1415926535897931 0 #
-130 loop $-1 -1 -1 $-1 $-1 $190 $82 F unknown #
-131 cone-surface $-1 -1 -1 $-1 -30.310889132455163 5 -17.500000000000359 -0 -1 -0 0 0 -2.2500000000000018 1 I I 0 1 2.2500000000000018 forward I I I I #
-132 coedge $-1 -1 -1 $-1 $191 $192 $193 $194 forward $83 $-1 #
-133 coedge $-1 -1 -1 $-1 $195 $85 $196 $197 forward $49 $-1 #
-134 coedge $-1 -1 -1 $-1 $85 $195 $198 $199 reversed $49 $-1 #
-135 coedge $-1 -1 -1 $-1 $200 $200 $85 $136 reversed $110 $-1 #
-136 edge $-1 -1 -1 $-1 $201 0 $202 3.1415926535897931 $85 $203 forward @7 unknown F #
-137 coedge $-1 -1 -1 $-1 $87 $86 $204 $205 forward $29 $-1 #
-138 coedge $-1 -1 -1 $-1 $206 $207 $86 $139 reversed $208 $-1 #
-139 edge $-1 -1 -1 $-1 $145 0.090352813742385713 $209 0.10635281374238571 $86 $210 forward @7 unknown F #
-140 coedge $-1 -1 -1 $-1 $207 $206 $87 $141 forward $208 $-1 #
-141 edge $-1 -1 -1 $-1 $144 0.090352813742385713 $211 0.10635281374238571 $140 $212 forward @7 unknown F #
-142 coedge $-1 -1 -1 $-1 $88 $88 $206 $213 reversed $143 $-1 #
-143 loop $-1 -1 -1 $-1 $62 $88 $111 F unknown #
-144 vertex $-1 -1 -1 $-1 $213 $214 #
-145 vertex $-1 -1 -1 $-1 $139 $215 #
-146 ellipse-curve $-1 -1 -1 $-1 0 -5.5000000000000053 15.25 -0 -1 -0 0 0 2.5000000000000022 1 I I #
-147 coedge $-1 -1 -1 $-1 $216 $216 $90 $148 forward $183 $-1 #
-148 edge $-1 -1 -1 $-1 $154 0 $152 3.1415926535897931 $147 $217 forward @7 unknown F #
-149 coedge $-1 -1 -1 $-1 $93 $91 $95 $156 reversed $151 $-1 #
-150 coedge $-1 -1 -1 $-1 $91 $93 $216 $218 reversed $151 $-1 #
-151 loop $-1 -1 -1 $-1 $-1 $91 $219 F unknown #
-152 vertex $-1 -1 -1 $-1 $92 $220 #
-153 straight-curve $-1 -1 -1 $-1 3.6739403974420592e-015 -95.852813742385706 -30 0 1000 0 I I #
-154 vertex $-1 -1 -1 $-1 $218 $221 #
-155 straight-curve $-1 -1 -1 $-1 0 -95.852813742385706 30 0 1000 0 I I #
-156 edge $-1 -1 -1 $-1 $98 0 $97 3.1415926535897931 $95 $222 forward @7 unknown F #
-157 point $-1 -1 -1 $-1 3.6739403974420592e-015 -5.5000000000000053 -30 #
-158 point $-1 -1 -1 $-1 0 -5.5000000000000053 30 #
-159 coedge $-1 -1 -1 $-1 $100 $100 $103 $162 reversed $160 $-1 #
-160 loop $-1 -1 -1 $-1 $-1 $159 $171 F unknown #
-161 ellipse-curve $-1 -1 -1 $-1 13.206887407712687 10.499999999999998 -7.6250000000000071 0 1 0 0 0 2.5000000000000022 1 I I #
-162 edge $-1 -1 -1 $-1 $107 0 $105 3.1415926535897931 $103 $223 forward @7 unknown F #
-163 face $224 -1 -1 $-1 $118 $104 $4 $-1 $225 reversed single F T 36.141125496954253 42.541125496954244 0 3.1415926535897931 #
-164 point $-1 -1 -1 $-1 13.206887407712687 10.499999999999998 -10.125000000000009 #
-165 point $-1 -1 -1 $-1 13.206887407712687 10.499999999999998 -5.1250000000000044 #
-166 ellipse-curve $-1 -1 -1 $-1 13.206887407712687 -5.5000000000000053 -7.6250000000000071 -0 -1 -0 0 0 2.5000000000000022 1 I I #
-167 loop $-1 -1 -1 $-1 $-1 $193 $111 F unknown #
-168 integer_attrib-name_attrib-gen-attrib $-1 -1 $226 $-1 $111 2 1 2 1 1 1 1 1 1 1 1 1 1 1 0 1 1 1 @12 Cut-Extrude1 0 #
-169 plane-surface $-1 -1 -1 $-1 0 -5.5 0 0 1 0 0 0 1000 forward_v I I I I #
-170 loop $-1 -1 -1 $-1 $160 $227 $171 F unknown #
-171 face $228 -1 -1 $-1 $-1 $229 $4 $-1 $230 forward single F F #
-172 ellipse-curve $-1 -1 -1 $-1 0 10.499999999999998 0 0 1 0 0 0 30 1 I I #
-173 integer_attrib-name_attrib-gen-attrib $-1 -1 $231 $-1 $118 2 1 2 1 1 1 1 1 1 1 1 1 1 1 0 1 1 1 @12 Cut-Extrude1 0 #
-174 cone-surface $-1 -1 -1 $-1 0 -95.852813742385706 0 0 1 0 0 0 30 1 I I 0 1 30 forward I I I I #
-175 loop $-1 -1 -1 $-1 $232 $233 $77 F unknown #
-176 coedge $-1 -1 -1 $-1 $234 $234 $235 $236 reversed $122 $-1 #
-177 coedge $-1 -1 -1 $-1 $123 $123 $237 $238 reversed $76 $-1 #
-178 coedge $-1 -1 -1 $-1 $239 $240 $123 $179 forward $188 $-1 #
-179 edge $-1 -1 -1 $-1 $241 -3.1415926535897931 $242 0 $178 $243 forward @7 unknown F #
-180 rgb_color-st-attrib $-1 -1 $-1 $124 $77 2 1 2 1 1 1 1 1 1 1 1 1 1 1 0 1 1 1 0.29803921568627451 0.29803921568627451 0.29803921568627451 #
-181 integer_attrib-name_attrib-gen-attrib $-1 -1 $244 $-1 $125 2 1 2 1 1 1 1 1 1 1 1 1 1 1 0 1 1 1 @12 Cut-Extrude1 0 #
-182 face $245 -1 -1 $-1 $246 $247 $4 $-1 $248 forward single F T 0 0.12500000000000003 -3.1415926535897931 0 #
-183 loop $-1 -1 -1 $-1 $249 $147 $125 F unknown #
-184 plane-surface $-1 -1 -1 $-1 0 0 0 0 1 0 0 0 1000 forward_v I I I I #
-185 rgb_color-st-attrib $-1 -1 $-1 $128 $82 2 1 2 1 1 1 1 1 1 1 1 1 1 1 0 1 1 1 0.29803921568627451 0.29803921568627451 0.29803921568627451 #
-186 integer_attrib-name_attrib-gen-attrib $-1 -1 $250 $-1 $129 2 1 2 1 1 1 1 1 1 1 1 1 1 1 0 1 1 1 @12 Cut-Extrude1 0 #
-187 face $251 -1 -1 $-1 $252 $253 $4 $-1 $254 reversed single F T 0 2.2222222222222205 -3.1415926535897931 0 #
-188 loop $-1 -1 -1 $-1 $-1 $178 $129 F unknown #
-189 cone-surface $-1 -1 -1 $-1 -30.310889132455522 5 17.499999999999726 -0 -1 -0 0 0 -2.2500000000000004 1 I I 0 1 2.2500000000000004 forward I I I I #
-190 coedge $-1 -1 -1 $-1 $255 $256 $257 $258 forward $130 $-1 #
-191 coedge $-1 -1 -1 $-1 $259 $132 $260 $261 forward $83 $-1 #
-192 coedge $-1 -1 -1 $-1 $132 $259 $262 $263 reversed $83 $-1 #
-193 coedge $-1 -1 -1 $-1 $264 $264 $132 $194 reversed $167 $-1 #
-194 edge $-1 -1 -1 $-1 $265 0 $266 3.1415926535897931 $132 $267 forward @7 unknown F #
-195 coedge $-1 -1 -1 $-1 $134 $133 $268 $269 forward $49 $-1 #
-196 coedge $-1 -1 -1 $-1 $270 $271 $133 $197 reversed $272 $-1 #
-197 edge $-1 -1 -1 $-1 $202 0.090352813742385713 $273 0.10635281374238571 $133 $274 forward @7 unknown F #
-198 coedge $-1 -1 -1 $-1 $271 $270 $134 $199 forward $272 $-1 #
-199 edge $-1 -1 -1 $-1 $201 0.090352813742385713 $275 0.10635281374238571 $198 $276 forward @7 unknown F #
-200 coedge $-1 -1 -1 $-1 $135 $135 $270 $277 reversed $110 $-1 #
-201 vertex $-1 -1 -1 $-1 $277 $278 #
-202 vertex $-1 -1 -1 $-1 $197 $279 #
-203 ellipse-curve $-1 -1 -1 $-1 -13.206887407712692 -5.5000000000000053 -7.6249999999999973 -0 -1 -0 0 0 2.4999999999999996 1 I I #
-204 coedge $-1 -1 -1 $-1 $227 $227 $137 $205 reversed $170 $-1 #
-205 edge $-1 -1 -1 $-1 $209 -3.1415926535897931 $211 0 $137 $280 forward @7 unknown F #
-206 coedge $-1 -1 -1 $-1 $140 $138 $142 $213 forward $208 $-1 #
-207 coedge $-1 -1 -1 $-1 $138 $140 $227 $281 forward $208 $-1 #
-208 loop $-1 -1 -1 $-1 $-1 $138 $282 F unknown #
-209 vertex $-1 -1 -1 $-1 $139 $283 #
-210 straight-curve $-1 -1 -1 $-1 3.0616169978683841e-016 -95.852813742385706 12.75 0 1000 0 I I #
-211 vertex $-1 -1 -1 $-1 $205 $284 #
-212 straight-curve $-1 -1 -1 $-1 0 -95.852813742385706 17.750000000000004 0 1000 0 I I #
-213 edge $-1 -1 -1 $-1 $145 -3.1415926535897931 $144 0 $206 $285 forward @7 unknown F #
-214 point $-1 -1 -1 $-1 0 -5.5000000000000053 17.750000000000004 #
-215 point $-1 -1 -1 $-1 3.0616169978683846e-016 -5.5000000000000053 12.75 #
-216 coedge $-1 -1 -1 $-1 $147 $147 $150 $218 forward $183 $-1 #
-217 ellipse-curve $-1 -1 -1 $-1 0 0 0 0 1 0 0 0 30 1 I I #
-218 edge $-1 -1 -1 $-1 $152 -3.1415926535897931 $154 0 $216 $286 forward @7 unknown F #
-219 face $287 -1 -1 $-1 $111 $151 $4 $-1 $288 forward single F T 3.0117604580795234 3.195093791412857 -3.1415926535897931 0 #
-220 point $-1 -1 -1 $-1 3.6739403974420592e-015 0 -30 #
-221 point $-1 -1 -1 $-1 0 0 30 #
-222 ellipse-curve $-1 -1 -1 $-1 0 -5.5000000000000053 0 -0 -1 -0 0 0 30 1 I I #
-223 ellipse-curve $-1 -1 -1 $-1 13.206887407712687 10.499999999999998 -7.6250000000000071 0 1 0 0 0 2.5000000000000022 1 I I #
-224 integer_attrib-name_attrib-gen-attrib $-1 -1 $289 $-1 $163 2 1 2 1 1 1 1 1 1 1 1 1 1 1 0 1 1 1 @12 Cut-Extrude1 0 #
-225 cone-surface $-1 -1 -1 $-1 13.206887407712687 -95.852813742385706 -7.6250000000000071 0 1 0 0 0 2.5000000000000022 1 I I 0 1 2.5000000000000022 forward I I I I #
-226 rgb_color-st-attrib $-1 -1 $-1 $168 $111 2 1 2 1 1 1 1 1 1 1 1 1 1 1 0 1 1 1 0.84313725490196079 0.81568627450980391 0.75294117647058822 #
-227 coedge $-1 -1 -1 $-1 $204 $204 $207 $281 reversed $170 $-1 #
-228 integer_attrib-name_attrib-gen-attrib $-1 -1 $290 $-1 $171 2 1 2 1 1 1 1 1 1 1 1 1 1 1 0 1 1 1 @12 Cut-Extrude1 0 #
-229 loop $-1 -1 -1 $-1 $291 $292 $171 F unknown #
-230 plane-surface $-1 -1 -1 $-1 0 10.499999999999998 0 0 1 0 0 0 1000 forward_v I I I I #
-231 rgb_color-st-attrib $-1 -1 $-1 $173 $118 2 1 2 1 1 1 1 1 1 1 1 1 1 1 0 1 1 1 0.84313725490196079 0.81568627450980391 0.75294117647058822 #
-232 loop $-1 -1 -1 $-1 $293 $294 $77 F unknown #
-233 coedge $-1 -1 -1 $-1 $295 $295 $296 $297 reversed $175 $-1 #
-234 coedge $-1 -1 -1 $-1 $176 $176 $298 $299 reversed $122 $-1 #
-235 coedge $-1 -1 -1 $-1 $300 $301 $176 $236 forward $302 $-1 #
-236 edge $-1 -1 -1 $-1 $303 -3.1415926535897931 $304 0 $235 $305 forward @7 unknown F #
-237 coedge $-1 -1 -1 $-1 $306 $307 $177 $238 forward $308 $-1 #
-238 edge $-1 -1 -1 $-1 $242 0 $241 3.1415926535897931 $237 $309 forward @7 unknown F #
-239 coedge $-1 -1 -1 $-1 $310 $178 $307 $311 forward $188 $-1 #
-240 coedge $-1 -1 -1 $-1 $178 $310 $306 $312 reversed $188 $-1 #
-241 vertex $-1 -1 -1 $-1 $238 $313 #
-242 vertex $-1 -1 -1 $-1 $311 $314 #
-243 ellipse-curve $-1 -1 -1 $-1 -30.310889132455522 5 17.499999999999726 0 1 0 0 0 2.2499999999999987 1 I I #
-244 rgb_color-st-attrib $-1 -1 $-1 $181 $125 2 1 2 1 1 1 1 1 1 1 1 1 1 1 0 1 1 1 0.29803921568627451 0.29803921568627451 0.29803921568627451 #
-245 integer_attrib-name_attrib-gen-attrib $-1 -1 $315 $-1 $182 2 1 2 1 1 1 1 1 1 1 1 1 1 1 0 1 1 1 @12 Cut-Extrude1 0 #
-246 face $316 -1 -1 $-1 $317 $318 $4 $-1 $319 reversed single F T 0 2.2222222222222205 0 3.1415926535897931 #
-247 loop $-1 -1 -1 $-1 $-1 $320 $182 F unknown #
-248 cone-surface $-1 -1 -1 $-1 0 5 0 -0 -1 -0 0 0 -39.999999999999993 1 I I 0 1 39.999999999999993 forward I I I I #
-249 loop $-1 -1 -1 $-1 $321 $322 $125 F unknown #
-250 rgb_color-st-attrib $-1 -1 $-1 $186 $129 2 1 2 1 1 1 1 1 1 1 1 1 1 1 0 1 1 1 0.29803921568627451 0.29803921568627451 0.29803921568627451 #
-251 integer_attrib-name_attrib-gen-attrib $-1 -1 $323 $-1 $187 2 1 2 1 1 1 1 1 1 1 1 1 1 1 0 1 1 1 @12 Cut-Extrude1 0 #
-252 face $324 -1 -1 $-1 $325 $302 $4 $-1 $326 reversed single F T 0 2.2222222222222205 -3.1415926535897931 0 #
-253 loop $-1 -1 -1 $-1 $-1 $327 $187 F unknown #
-254 cone-surface $-1 -1 -1 $-1 -2.4440369371901941e-013 5 35.000000000000007 -0 -1 -0 0 0 -2.2500000000000018 1 I I 0 1 2.2500000000000018 forward I I I I #
-255 coedge $-1 -1 -1 $-1 $328 $190 $329 $330 forward $130 $-1 #
-256 coedge $-1 -1 -1 $-1 $190 $328 $331 $332 reversed $130 $-1 #
-257 coedge $-1 -1 -1 $-1 $333 $333 $190 $258 reversed $334 $-1 #
-258 edge $-1 -1 -1 $-1 $335 -3.1415926535897931 $336 0 $190 $337 forward @7 unknown F #
-259 coedge $-1 -1 -1 $-1 $192 $191 $338 $339 forward $83 $-1 #
-260 coedge $-1 -1 -1 $-1 $340 $341 $191 $261 reversed $342 $-1 #
-261 edge $-1 -1 -1 $-1 $266 0.090352813742385713 $343 0.10635281374238571 $191 $344 forward @7 unknown F #
-262 coedge $-1 -1 -1 $-1 $341 $340 $192 $263 forward $342 $-1 #
-263 edge $-1 -1 -1 $-1 $265 0.090352813742385713 $345 0.10635281374238571 $262 $346 forward @7 unknown F #
-264 coedge $-1 -1 -1 $-1 $193 $193 $340 $347 reversed $167 $-1 #
-265 vertex $-1 -1 -1 $-1 $347 $348 #
-266 vertex $-1 -1 -1 $-1 $261 $349 #
-267 ellipse-curve $-1 -1 -1 $-1 0 -5.5000000000000053 0 -0 -1 -0 0 0 10 1 I I #
-268 coedge $-1 -1 -1 $-1 $292 $292 $195 $269 reversed $229 $-1 #
-269 edge $-1 -1 -1 $-1 $273 -3.1415926535897931 $275 0 $195 $350 forward @7 unknown F #
-270 coedge $-1 -1 -1 $-1 $198 $196 $200 $277 forward $272 $-1 #
-271 coedge $-1 -1 -1 $-1 $196 $198 $292 $351 forward $272 $-1 #
-272 loop $-1 -1 -1 $-1 $-1 $196 $352 F unknown #
-273 vertex $-1 -1 -1 $-1 $197 $353 #
-274 straight-curve $-1 -1 -1 $-1 -13.206887407712692 -95.852813742385706 -10.124999999999996 0 1000 0 I I #
-275 vertex $-1 -1 -1 $-1 $269 $354 #
-276 straight-curve $-1 -1 -1 $-1 -13.206887407712692 -95.852813742385706 -5.1249999999999973 0 1000 0 I I #
-277 edge $-1 -1 -1 $-1 $202 -3.1415926535897931 $201 0 $270 $355 forward @7 unknown F #
-278 point $-1 -1 -1 $-1 -13.206887407712692 -5.5000000000000053 -5.1249999999999973 #
-279 point $-1 -1 -1 $-1 -13.206887407712692 -5.5000000000000053 -10.124999999999996 #
-280 ellipse-curve $-1 -1 -1 $-1 0 10.499999999999998 15.25 0 1 0 0 0 2.5000000000000022 1 I I #
-281 edge $-1 -1 -1 $-1 $211 0 $209 3.1415926535897931 $207 $356 forward @7 unknown F #
-282 face $357 -1 -1 $-1 $219 $208 $4 $-1 $358 reversed single F T 36.141125496954253 42.541125496954244 0 3.1415926535897931 #
-283 point $-1 -1 -1 $-1 3.0616169978683846e-016 10.499999999999998 12.75 #
-284 point $-1 -1 -1 $-1 0 10.499999999999998 17.750000000000004 #
-285 ellipse-curve $-1 -1 -1 $-1 0 -5.5000000000000053 15.25 -0 -1 -0 0 0 2.5000000000000022 1 I I #
-286 ellipse-curve $-1 -1 -1 $-1 0 0 0 0 1 0 0 0 30 1 I I #
-287 integer_attrib-name_attrib-gen-attrib $-1 -1 $359 $-1 $219 2 1 2 1 1 1 1 1 1 1 1 1 1 1 0 1 1 1 @12 Cut-Extrude1 0 #
-288 cone-surface $-1 -1 -1 $-1 0 -95.852813742385706 0 0 1 0 0 0 30 1 I I 0 1 30 forward I I I I #
-289 rgb_color-st-attrib $-1 -1 $-1 $224 $163 2 1 2 1 1 1 1 1 1 1 1 1 1 1 0 1 1 1 0.84313725490196079 0.81568627450980391 0.75294117647058822 #
-290 rgb_color-st-attrib $-1 -1 $-1 $228 $171 2 1 2 1 1 1 1 1 1 1 1 1 1 1 0 1 1 1 0.84313725490196079 0.81568627450980391 0.75294117647058822 #
-291 loop $-1 -1 -1 $-1 $115 $360 $171 F unknown #
-292 coedge $-1 -1 -1 $-1 $268 $268 $271 $351 reversed $229 $-1 #
-293 loop $-1 -1 -1 $-1 $361 $362 $77 F unknown #
-294 coedge $-1 -1 -1 $-1 $363 $363 $364 $365 forward $232 $-1 #
-295 coedge $-1 -1 -1 $-1 $233 $233 $366 $367 reversed $175 $-1 #
-296 coedge $-1 -1 -1 $-1 $368 $369 $233 $297 forward $370 $-1 #
-297 edge $-1 -1 -1 $-1 $371 -3.1415926535897931 $372 1.2246467991473535e-016 $296 $373 forward @7 unknown F #
-298 coedge $-1 -1 -1 $-1 $374 $375 $234 $299 forward $376 $-1 #
-299 edge $-1 -1 -1 $-1 $304 0 $303 3.1415926535897931 $298 $377 forward @7 unknown F #
-300 coedge $-1 -1 -1 $-1 $378 $235 $375 $379 forward $302 $-1 #
-301 coedge $-1 -1 -1 $-1 $235 $378 $374 $380 reversed $302 $-1 #
-302 loop $-1 -1 -1 $-1 $-1 $235 $252 F unknown #
-303 vertex $-1 -1 -1 $-1 $299 $381 #
-304 vertex $-1 -1 -1 $-1 $379 $382 #
-305 ellipse-curve $-1 -1 -1 $-1 30.31088913245528 5 17.500000000000146 0 1 0 0 0 2.2500000000000018 1 I I #
-306 coedge $-1 -1 -1 $-1 $383 $237 $240 $312 forward $308 $-1 #
-307 coedge $-1 -1 -1 $-1 $237 $383 $239 $311 reversed $308 $-1 #
-308 loop $-1 -1 -1 $-1 $-1 $307 $384 F unknown #
-309 ellipse-curve $-1 -1 -1 $-1 -30.310889132455522 5 17.499999999999726 0 1 0 0 0 2.2499999999999987 1 I I #
-310 coedge $-1 -1 -1 $-1 $240 $239 $385 $386 reversed $188 $-1 #
-311 edge $-1 -1 -1 $-1 $242 -0 $387 0.0050000000000000001 $239 $388 forward @7 unknown F #
-312 edge $-1 -1 -1 $-1 $241 -0 $389 0.0050000000000000001 $306 $390 forward @7 unknown F #
-313 point $-1 -1 -1 $-1 -30.310889132455522 5 15.249999999999726 #
-314 point $-1 -1 -1 $-1 -30.310889132455522 5 19.749999999999726 #
-315 rgb_color-st-attrib $-1 -1 $-1 $245 $182 2 1 2 1 1 1 1 1 1 1 1 1 1 1 0 1 1 1 0.29803921568627451 0.29803921568627451 0.29803921568627451 #
-316 integer_attrib-name_attrib-gen-attrib $-1 -1 $391 $-1 $246 2 1 2 1 1 1 1 1 1 1 1 1 1 1 0 1 1 1 @12 Cut-Extrude1 0 #
-317 face $392 -1 -1 $-1 $393 $394 $4 $-1 $395 reversed single F T 0 2.2222222222222237 0 3.1415926535897931 #
-318 loop $-1 -1 -1 $-1 $-1 $396 $246 F unknown #
-319 cone-surface $-1 -1 -1 $-1 0 5 -35.000000000000007 -0 -1 -0 0 0 -2.2500000000000018 1 I I 0 1 2.2500000000000018 forward I I I I #
-320 coedge $-1 -1 -1 $-1 $364 $397 $398 $399 reversed $247 $-1 #
-321 loop $-1 -1 -1 $-1 $400 $401 $125 F unknown #
-322 coedge $-1 -1 -1 $-1 $402 $402 $397 $403 reversed $249 $-1 #
-323 rgb_color-st-attrib $-1 -1 $-1 $251 $187 2 1 2 1 1 1 1 1 1 1 1 1 1 1 0 1 1 1 0.29803921568627451 0.29803921568627451 0.29803921568627451 #
-324 integer_attrib-name_attrib-gen-attrib $-1 -1 $404 $-1 $252 2 1 2 1 1 1 1 1 1 1 1 1 1 1 0 1 1 1 @12 Cut-Extrude1 0 #
-325 face $405 -1 -1 $-1 $406 $407 $4 $-1 $408 reversed single F T 0 2.2222222222222237 -3.1415926535897931 0 #
-326 cone-surface $-1 -1 -1 $-1 30.31088913245528 5 17.500000000000146 -0 -1 -0 0 0 -2.2500000000000018 1 I I 0 1 2.2500000000000018 forward I I I I #
-327 coedge $-1 -1 -1 $-1 $409 $410 $411 $412 forward $253 $-1 #
-328 coedge $-1 -1 -1 $-1 $256 $255 $413 $414 reversed $130 $-1 #
-329 coedge $-1 -1 -1 $-1 $415 $416 $255 $330 reversed $417 $-1 #
-330 edge $-1 -1 -1 $-1 $336 -0 $418 0.0050000000000000001 $255 $419 forward @7 unknown F #
-331 coedge $-1 -1 -1 $-1 $416 $415 $256 $332 forward $417 $-1 #
-332 edge $-1 -1 -1 $-1 $335 -0 $420 0.0050000000000000001 $331 $421 forward @7 unknown F #
-333 coedge $-1 -1 -1 $-1 $257 $257 $415 $422 reversed $334 $-1 #
-334 loop $-1 -1 -1 $-1 $-1 $257 $77 F unknown #
-335 vertex $-1 -1 -1 $-1 $422 $423 #
-336 vertex $-1 -1 -1 $-1 $330 $424 #
-337 ellipse-curve $-1 -1 -1 $-1 -30.310889132455163 5 -17.500000000000359 0 1 0 0 0 2.2500000000000018 1 I I #
-338 coedge $-1 -1 -1 $-1 $360 $360 $259 $339 reversed $291 $-1 #
-339 edge $-1 -1 -1 $-1 $343 -3.1415926535897931 $345 0 $259 $425 forward @7 unknown F #
-340 coedge $-1 -1 -1 $-1 $262 $260 $264 $347 forward $342 $-1 #
-341 coedge $-1 -1 -1 $-1 $260 $262 $360 $426 forward $342 $-1 #
-342 loop $-1 -1 -1 $-1 $-1 $260 $427 F unknown #
-343 vertex $-1 -1 -1 $-1 $261 $428 #
-344 straight-curve $-1 -1 -1 $-1 1.2246467991473533e-015 -95.852813742385706 -10 0 1000 0 I I #
-345 vertex $-1 -1 -1 $-1 $339 $429 #
-346 straight-curve $-1 -1 -1 $-1 0 -95.852813742385706 10 0 1000 0 I I #
-347 edge $-1 -1 -1 $-1 $266 -3.1415926535897931 $265 0 $340 $430 forward @7 unknown F #
-348 point $-1 -1 -1 $-1 0 -5.5000000000000053 10 #
-349 point $-1 -1 -1 $-1 1.2246467991473533e-015 -5.5000000000000053 -10 #
-350 ellipse-curve $-1 -1 -1 $-1 -13.206887407712692 10.499999999999998 -7.6249999999999973 0 1 0 0 0 2.4999999999999996 1 I I #
-351 edge $-1 -1 -1 $-1 $275 0 $273 3.1415926535897931 $271 $431 forward @7 unknown F #
-352 face $432 -1 -1 $-1 $282 $272 $4 $-1 $433 reversed single F T 36.141125496954288 42.541125496954287 0 3.1415926535897931 #
-353 point $-1 -1 -1 $-1 -13.206887407712692 10.499999999999998 -10.124999999999996 #
-354 point $-1 -1 -1 $-1 -13.206887407712692 10.499999999999998 -5.1249999999999973 #
-355 ellipse-curve $-1 -1 -1 $-1 -13.206887407712692 -5.5000000000000053 -7.6249999999999973 -0 -1 -0 0 0 2.4999999999999996 1 I I #
-356 ellipse-curve $-1 -1 -1 $-1 0 10.499999999999998 15.25 0 1 0 0 0 2.5000000000000022 1 I I #
-357 integer_attrib-name_attrib-gen-attrib $-1 -1 $434 $-1 $282 2 1 2 1 1 1 1 1 1 1 1 1 1 1 0 1 1 1 @12 Cut-Extrude1 0 #
-358 cone-surface $-1 -1 -1 $-1 0 -95.852813742385706 15.25 0 1 0 0 0 2.5000000000000022 1 I I 0 1 2.5000000000000022 forward I I I I #
-359 rgb_color-st-attrib $-1 -1 $-1 $287 $219 2 1 2 1 1 1 1 1 1 1 1 1 1 1 0 1 1 1 0.84313725490196079 0.81568627450980391 0.75294117647058822 #
-360 coedge $-1 -1 -1 $-1 $338 $338 $341 $426 reversed $291 $-1 #
-361 loop $-1 -1 -1 $-1 $334 $411 $77 F unknown #
-362 coedge $-1 -1 -1 $-1 $435 $435 $436 $437 reversed $293 $-1 #
-363 coedge $-1 -1 -1 $-1 $294 $294 $438 $439 forward $232 $-1 #
-364 coedge $-1 -1 -1 $-1 $440 $320 $294 $365 reversed $247 $-1 #
-365 edge $-1 -1 -1 $-1 $441 -3.1415926535897931 $442 1.224646799147353e-016 $294 $443 forward @7 unknown F #
-366 coedge $-1 -1 -1 $-1 $444 $396 $295 $367 forward $318 $-1 #
-367 edge $-1 -1 -1 $-1 $372 1.2246467991473535e-016 $371 3.1415926535897931 $366 $445 forward @7 unknown F #
-368 coedge $-1 -1 -1 $-1 $446 $296 $396 $447 forward $370 $-1 #
-369 coedge $-1 -1 -1 $-1 $296 $446 $444 $448 reversed $370 $-1 #
-370 loop $-1 -1 -1 $-1 $-1 $296 $406 F unknown #
-371 vertex $-1 -1 -1 $-1 $367 $449 #
-372 vertex $-1 -1 -1 $-1 $447 $450 #
-373 ellipse-curve $-1 -1 -1 $-1 0 5 -35.000000000000007 0 1 0 0 0 2.2500000000000018 1 I I #
-374 coedge $-1 -1 -1 $-1 $451 $298 $301 $380 forward $376 $-1 #
-375 coedge $-1 -1 -1 $-1 $298 $451 $300 $379 reversed $376 $-1 #
-376 loop $-1 -1 -1 $-1 $-1 $375 $393 F unknown #
-377 ellipse-curve $-1 -1 -1 $-1 30.31088913245528 5 17.500000000000146 0 1 0 0 0 2.2500000000000018 1 I I #
-378 coedge $-1 -1 -1 $-1 $301 $300 $452 $453 reversed $302 $-1 #
-379 edge $-1 -1 -1 $-1 $304 -0 $454 0.0050000000000000001 $300 $455 forward @7 unknown F #
-380 edge $-1 -1 -1 $-1 $303 -0 $456 0.0050000000000000001 $374 $457 forward @7 unknown F #
-381 point $-1 -1 -1 $-1 30.31088913245528 5 15.250000000000146 #
-382 point $-1 -1 -1 $-1 30.31088913245528 5 19.750000000000149 #
-383 coedge $-1 -1 -1 $-1 $307 $306 $458 $459 reversed $308 $-1 #
-384 face $460 -1 -1 $-1 $461 $308 $4 $-1 $462 reversed single F T 0 2.2222222222222219 0 3.1415926535897931 #
-385 coedge $-1 -1 -1 $-1 $458 $458 $310 $386 forward $463 $-1 #
-386 edge $-1 -1 -1 $-1 $389 -3.1415926535897931 $387 0 $385 $464 forward @7 unknown F #
-387 vertex $-1 -1 -1 $-1 $311 $465 #
-388 straight-curve $-1 -1 -1 $-1 -30.310889132455522 5 19.749999999999726 -0 -1000 -0 I I #
-389 vertex $-1 -1 -1 $-1 $459 $466 #
-390 straight-curve $-1 -1 -1 $-1 -30.310889132455522 5 15.249999999999726 -0 -1000 -0 I I #
-391 rgb_color-st-attrib $-1 -1 $-1 $316 $246 2 1 2 1 1 1 1 1 1 1 1 1 1 1 0 1 1 1 0.29803921568627451 0.29803921568627451 0.29803921568627451 #
-392 integer_attrib-name_attrib-gen-attrib $-1 -1 $467 $-1 $317 2 1 2 1 1 1 1 1 1 1 1 1 1 1 0 1 1 1 @12 Cut-Extrude1 0 #
-393 face $468 -1 -1 $-1 $469 $376 $4 $-1 $470 reversed single F T 0 2.2222222222222205 0 3.1415926535897931 #
-394 loop $-1 -1 -1 $-1 $-1 $471 $317 F unknown #
-395 cone-surface $-1 -1 -1 $-1 30.310889132455397 5 -17.499999999999943 -0 -1 -0 0 0 -2.2499999999999987 1 I I 0 1 2.2499999999999987 forward I I I I #
-396 coedge $-1 -1 -1 $-1 $366 $472 $368 $447 reversed $318 $-1 #
-397 coedge $-1 -1 -1 $-1 $320 $440 $322 $403 forward $247 $-1 #
-398 coedge $-1 -1 -1 $-1 $473 $438 $320 $399 forward $474 $-1 #
-399 edge $-1 -1 -1 $-1 $442 -0 $475 0.0050000000000000001 $398 $476 forward @7 unknown F #
-400 loop $-1 -1 -1 $-1 $477 $478 $125 F unknown #
-401 coedge $-1 -1 -1 $-1 $479 $479 $446 $480 forward $321 $-1 #
-402 coedge $-1 -1 -1 $-1 $322 $322 $473 $481 reversed $249 $-1 #
-403 edge $-1 -1 -1 $-1 $482 -3.1415926535897931 $475 1.224646799147353e-016 $397 $483 forward @7 unknown F #
-404 rgb_color-st-attrib $-1 -1 $-1 $324 $252 2 1 2 1 1 1 1 1 1 1 1 1 1 1 0 1 1 1 0.29803921568627451 0.29803921568627451 0.29803921568627451 #
-405 integer_attrib-name_attrib-gen-attrib $-1 -1 $484 $-1 $325 2 1 2 1 1 1 1 1 1 1 1 1 1 1 0 1 1 1 @12 Cut-Extrude1 0 #
-406 face $485 -1 -1 $-1 $486 $370 $4 $-1 $487 reversed single F T 0 2.2222222222222205 -3.1415926535897931 0 #
-407 loop $-1 -1 -1 $-1 $-1 $436 $325 F unknown #
-408 cone-surface $-1 -1 -1 $-1 30.310889132455397 5 -17.499999999999943 -0 -1 -0 0 0 -2.2499999999999987 1 I I 0 1 2.2499999999999987 forward I I I I #
-409 coedge $-1 -1 -1 $-1 $488 $327 $489 $490 forward $253 $-1 #
-410 coedge $-1 -1 -1 $-1 $327 $488 $491 $492 reversed $253 $-1 #
-411 coedge $-1 -1 -1 $-1 $493 $493 $327 $412 reversed $361 $-1 #
-412 edge $-1 -1 -1 $-1 $494 -3.1415926535897931 $495 1.2246467991471553e-016 $327 $496 forward @7 unknown F #
-413 coedge $-1 -1 -1 $-1 $497 $497 $328 $414 forward $498 $-1 #
-414 edge $-1 -1 -1 $-1 $420 -3.1415926535897931 $418 0 $413 $499 forward @7 unknown F #
-415 coedge $-1 -1 -1 $-1 $331 $329 $333 $422 forward $417 $-1 #
-416 coedge $-1 -1 -1 $-1 $329 $331 $497 $500 reversed $417 $-1 #
-417 loop $-1 -1 -1 $-1 $-1 $329 $461 F unknown #
-418 vertex $-1 -1 -1 $-1 $330 $501 #
-419 straight-curve $-1 -1 -1 $-1 -30.310889132455163 5 -15.250000000000357 -0 -1000 -0 I I #
-420 vertex $-1 -1 -1 $-1 $500 $502 #
-421 straight-curve $-1 -1 -1 $-1 -30.310889132455163 5 -19.750000000000362 -0 -1000 -0 I I #
-422 edge $-1 -1 -1 $-1 $336 0 $335 3.1415926535897931 $415 $503 forward @7 unknown F #
-423 point $-1 -1 -1 $-1 -30.310889132455163 5 -19.750000000000362 #
-424 point $-1 -1 -1 $-1 -30.310889132455163 5 -15.250000000000357 #
-425 ellipse-curve $-1 -1 -1 $-1 0 10.499999999999998 0 0 1 0 0 0 10 1 I I #
-426 edge $-1 -1 -1 $-1 $345 0 $343 3.1415926535897931 $341 $504 forward @7 unknown F #
-427 face $505 -1 -1 $-1 $352 $342 $4 $-1 $506 reversed single F T 9.0352813742385703 10.63528137423857 0 3.1415926535897931 #
-428 point $-1 -1 -1 $-1 1.2246467991473533e-015 10.499999999999998 -10 #
-429 point $-1 -1 -1 $-1 0 10.499999999999998 10 #
-430 ellipse-curve $-1 -1 -1 $-1 0 -5.5000000000000053 0 -0 -1 -0 0 0 10 1 I I #
-431 ellipse-curve $-1 -1 -1 $-1 -13.206887407712692 10.499999999999998 -7.6249999999999973 0 1 0 0 0 2.4999999999999996 1 I I #
-432 integer_attrib-name_attrib-gen-attrib $-1 -1 $507 $-1 $352 2 1 2 1 1 1 1 1 1 1 1 1 1 1 0 1 1 1 @12 Cut-Extrude1 0 #
-433 cone-surface $-1 -1 -1 $-1 -13.206887407712692 -95.852813742385706 -7.6249999999999973 0 1 0 0 0 2.4999999999999996 1 I I 0 1 2.4999999999999996 forward I I I I #
-434 rgb_color-st-attrib $-1 -1 $-1 $357 $282 2 1 2 1 1 1 1 1 1 1 1 1 1 1 0 1 1 1 0.84313725490196079 0.81568627450980391 0.75294117647058822 #
-435 coedge $-1 -1 -1 $-1 $362 $362 $508 $509 reversed $293 $-1 #
-436 coedge $-1 -1 -1 $-1 $510 $511 $362 $437 forward $407 $-1 #
-437 edge $-1 -1 -1 $-1 $512 -3.1415926535897931 $513 0 $436 $514 forward @7 unknown F #
-438 coedge $-1 -1 -1 $-1 $398 $515 $363 $439 reversed $474 $-1 #
-439 edge $-1 -1 -1 $-1 $442 1.224646799147353e-016 $441 3.1415926535897931 $363 $516 forward @7 unknown F #
-440 coedge $-1 -1 -1 $-1 $397 $364 $515 $517 forward $247 $-1 #
-441 vertex $-1 -1 -1 $-1 $439 $518 #
-442 vertex $-1 -1 -1 $-1 $399 $519 #
-443 ellipse-curve $-1 -1 -1 $-1 0 5 0 0 1 0 0 0 39.999999999999993 1 I I #
-444 coedge $-1 -1 -1 $-1 $472 $366 $369 $448 forward $318 $-1 #
-445 ellipse-curve $-1 -1 -1 $-1 0 5 -35.000000000000007 0 1 0 0 0 2.2500000000000018 1 I I #
-446 coedge $-1 -1 -1 $-1 $369 $368 $401 $480 reversed $370 $-1 #
-447 edge $-1 -1 -1 $-1 $372 0 $520 0.0050000000000000001 $368 $521 forward @7 unknown F #
-448 edge $-1 -1 -1 $-1 $371 -0 $522 0.0050000000000000001 $444 $523 forward @7 unknown F #
-449 point $-1 -1 -1 $-1 0 5 -37.250000000000014 #
-450 point $-1 -1 -1 $-1 2.7554552980815428e-016 5 -32.750000000000007 #
-451 coedge $-1 -1 -1 $-1 $375 $374 $524 $525 reversed $376 $-1 #
-452 coedge $-1 -1 -1 $-1 $524 $524 $378 $453 forward $477 $-1 #
-453 edge $-1 -1 -1 $-1 $456 -3.1415926535897931 $454 0 $452 $526 forward @7 unknown F #
-454 vertex $-1 -1 -1 $-1 $379 $527 #
-455 straight-curve $-1 -1 -1 $-1 30.31088913245528 5 19.750000000000149 -0 -1000 -0 I I #
-456 vertex $-1 -1 -1 $-1 $525 $528 #
-457 straight-curve $-1 -1 -1 $-1 30.31088913245528 5 15.250000000000146 -0 -1000 -0 I I #
-458 coedge $-1 -1 -1 $-1 $385 $385 $383 $459 forward $463 $-1 #
-459 edge $-1 -1 -1 $-1 $387 0 $389 3.1415926535897931 $458 $529 forward @7 unknown F #
-460 integer_attrib-name_attrib-gen-attrib $-1 -1 $530 $-1 $384 2 1 2 1 1 1 1 1 1 1 1 1 1 1 0 1 1 1 @12 Cut-Extrude1 0 #
-461 face $531 -1 -1 $-1 $427 $417 $4 $-1 $532 reversed single F T 0 2.2222222222222205 0 3.1415926535897931 #
-462 cone-surface $-1 -1 -1 $-1 -30.310889132455522 5 17.499999999999726 -0 -1 -0 0 0 -2.2500000000000004 1 I I 0 1 2.2500000000000004 forward I I I I #
-463 loop $-1 -1 -1 $-1 $498 $385 $125 F unknown #
-464 ellipse-curve $-1 -1 -1 $-1 -30.310889132455522 0 17.499999999999726 0 1 0 0 0 2.2499999999999987 1 I I #
-465 point $-1 -1 -1 $-1 -30.310889132455522 0 19.749999999999726 #
-466 point $-1 -1 -1 $-1 -30.310889132455522 0 15.249999999999726 #
-467 rgb_color-st-attrib $-1 -1 $-1 $392 $317 2 1 2 1 1 1 1 1 1 1 1 1 1 1 0 1 1 1 0.29803921568627451 0.29803921568627451 0.29803921568627451 #
-468 integer_attrib-name_attrib-gen-attrib $-1 -1 $533 $-1 $393 2 1 2 1 1 1 1 1 1 1 1 1 1 1 0 1 1 1 @12 Cut-Extrude1 0 #
-469 face $534 -1 -1 $-1 $384 $535 $4 $-1 $536 reversed single F T 0 2.2222222222222205 0 3.1415926535897931 #
-470 cone-surface $-1 -1 -1 $-1 30.31088913245528 5 17.500000000000146 -0 -1 -0 0 0 -2.2500000000000018 1 I I 0 1 2.2500000000000018 forward I I I I #
-471 coedge $-1 -1 -1 $-1 $508 $537 $510 $538 reversed $394 $-1 #
-472 coedge $-1 -1 -1 $-1 $396 $444 $479 $539 reversed $318 $-1 #
-473 coedge $-1 -1 -1 $-1 $515 $398 $402 $481 forward $474 $-1 #
-474 loop $-1 -1 -1 $-1 $-1 $438 $486 F unknown #
-475 vertex $-1 -1 -1 $-1 $399 $540 #
-476 straight-curve $-1 -1 -1 $-1 4.8985871965894122e-015 5 39.999999999999993 -0 -1000 -0 I I #
-477 loop $-1 -1 -1 $-1 $541 $452 $125 F unknown #
-478 coedge $-1 -1 -1 $-1 $542 $542 $543 $544 forward $400 $-1 #
-479 coedge $-1 -1 -1 $-1 $401 $401 $472 $539 forward $321 $-1 #
-480 edge $-1 -1 -1 $-1 $522 -3.1415926535897931 $520 1.2246467991473535e-016 $401 $545 forward @7 unknown F #
-481 edge $-1 -1 -1 $-1 $475 1.224646799147353e-016 $482 3.1415926535897931 $473 $546 forward @7 unknown F #
-482 vertex $-1 -1 -1 $-1 $481 $547 #
-483 ellipse-curve $-1 -1 -1 $-1 0 0 0 0 1 0 0 0 39.999999999999993 1 I I #
-484 rgb_color-st-attrib $-1 -1 $-1 $405 $325 2 1 2 1 1 1 1 1 1 1 1 1 1 1 0 1 1 1 0.29803921568627451 0.29803921568627451 0.29803921568627451 #
-485 integer_attrib-name_attrib-gen-attrib $-1 -1 $548 $-1 $406 2 1 2 1 1 1 1 1 1 1 1 1 1 1 0 1 1 1 @12 Cut-Extrude1 0 #
-486 face $549 -1 -1 $-1 $77 $474 $4 $-1 $550 forward single F T 0 0.12500000000000003 0 3.1415926535897931 #
-487 cone-surface $-1 -1 -1 $-1 0 5 -35.000000000000007 -0 -1 -0 0 0 -2.2500000000000018 1 I I 0 1 2.2500000000000018 forward I I I I #
-488 coedge $-1 -1 -1 $-1 $410 $409 $551 $552 reversed $253 $-1 #
-489 coedge $-1 -1 -1 $-1 $553 $554 $409 $490 reversed $535 $-1 #
-490 edge $-1 -1 -1 $-1 $495 -0 $555 0.0050000000000000001 $409 $556 forward @7 unknown F #
-491 coedge $-1 -1 -1 $-1 $554 $553 $410 $492 forward $535 $-1 #
-492 edge $-1 -1 -1 $-1 $494 -0 $557 0.0050000000000000001 $491 $558 forward @7 unknown F #
-493 coedge $-1 -1 -1 $-1 $411 $411 $553 $559 reversed $361 $-1 #
-494 vertex $-1 -1 -1 $-1 $559 $560 #
-495 vertex $-1 -1 -1 $-1 $490 $561 #
-496 ellipse-curve $-1 -1 -1 $-1 -2.4440369371901941e-013 5 35.000000000000007 0 1 0 0 0 2.2500000000000018 1 I I #
-497 coedge $-1 -1 -1 $-1 $413 $413 $416 $500 forward $498 $-1 #
-498 loop $-1 -1 -1 $-1 $-1 $413 $125 F unknown #
-499 ellipse-curve $-1 -1 -1 $-1 -30.310889132455163 0 -17.500000000000359 0 1 0 0 0 2.2500000000000018 1 I I #
-500 edge $-1 -1 -1 $-1 $418 0 $420 3.1415926535897931 $497 $562 forward @7 unknown F #
-501 point $-1 -1 -1 $-1 -30.310889132455163 0 -15.250000000000357 #
-502 point $-1 -1 -1 $-1 -30.310889132455163 0 -19.750000000000362 #
-503 ellipse-curve $-1 -1 -1 $-1 -30.310889132455163 5 -17.500000000000359 0 1 0 0 0 2.2500000000000018 1 I I #
-504 ellipse-curve $-1 -1 -1 $-1 0 10.499999999999998 0 0 1 0 0 0 10 1 I I #
-505 integer_attrib-name_attrib-gen-attrib $-1 -1 $563 $-1 $427 2 1 2 1 1 1 1 1 1 1 1 1 1 1 0 1 1 1 @12 Cut-Extrude1 0 #
-506 cone-surface $-1 -1 -1 $-1 0 -95.852813742385706 0 0 1 0 0 0 10 1 I I 0 1 10 forward I I I I #
-507 rgb_color-st-attrib $-1 -1 $-1 $432 $352 2 1 2 1 1 1 1 1 1 1 1 1 1 1 0 1 1 1 0.84313725490196079 0.81568627450980391 0.75294117647058822 #
-508 coedge $-1 -1 -1 $-1 $564 $471 $435 $509 forward $394 $-1 #
-509 edge $-1 -1 -1 $-1 $513 0 $512 3.1415926535897931 $508 $565 forward @7 unknown F #
-510 coedge $-1 -1 -1 $-1 $543 $436 $471 $538 forward $407 $-1 #
-511 coedge $-1 -1 -1 $-1 $436 $543 $564 $566 reversed $407 $-1 #
-512 vertex $-1 -1 -1 $-1 $509 $567 #
-513 vertex $-1 -1 -1 $-1 $538 $568 #
-514 ellipse-curve $-1 -1 -1 $-1 30.310889132455397 5 -17.499999999999943 0 1 0 0 0 2.2499999999999987 1 I I #
-515 coedge $-1 -1 -1 $-1 $438 $473 $440 $517 reversed $474 $-1 #
-516 ellipse-curve $-1 -1 -1 $-1 0 5 0 0 1 0 0 0 39.999999999999993 1 I I #
-517 edge $-1 -1 -1 $-1 $441 -0 $482 0.0050000000000000001 $440 $569 forward @7 unknown F #
-518 point $-1 -1 -1 $-1 0 5 -39.999999999999993 #
-519 point $-1 -1 -1 $-1 4.8985871965894122e-015 5 39.999999999999993 #
-520 vertex $-1 -1 -1 $-1 $447 $570 #
-521 straight-curve $-1 -1 -1 $-1 2.7554552980815448e-016 5 -32.750000000000007 -0 -1000 -0 I I #
-522 vertex $-1 -1 -1 $-1 $539 $571 #
-523 straight-curve $-1 -1 -1 $-1 0 5 -37.250000000000014 -0 -1000 -0 I I #
-524 coedge $-1 -1 -1 $-1 $452 $452 $451 $525 forward $477 $-1 #
-525 edge $-1 -1 -1 $-1 $454 0 $456 3.1415926535897931 $524 $572 forward @7 unknown F #
-526 ellipse-curve $-1 -1 -1 $-1 30.31088913245528 0 17.500000000000146 0 1 0 0 0 2.2500000000000018 1 I I #
-527 point $-1 -1 -1 $-1 30.31088913245528 0 19.750000000000149 #
-528 point $-1 -1 -1 $-1 30.31088913245528 0 15.250000000000146 #
-529 ellipse-curve $-1 -1 -1 $-1 -30.310889132455522 0 17.499999999999726 0 1 0 0 0 2.2499999999999987 1 I I #
-530 rgb_color-st-attrib $-1 -1 $-1 $460 $384 2 1 2 1 1 1 1 1 1 1 1 1 1 1 0 1 1 1 0.29803921568627451 0.29803921568627451 0.29803921568627451 #
-531 integer_attrib-name_attrib-gen-attrib $-1 -1 $573 $-1 $461 2 1 2 1 1 1 1 1 1 1 1 1 1 1 0 1 1 1 @12 Cut-Extrude1 0 #
-532 cone-surface $-1 -1 -1 $-1 -30.310889132455163 5 -17.500000000000359 -0 -1 -0 0 0 -2.2500000000000018 1 I I 0 1 2.2500000000000018 forward I I I I #
-533 rgb_color-st-attrib $-1 -1 $-1 $468 $393 2 1 2 1 1 1 1 1 1 1 1 1 1 1 0 1 1 1 0.29803921568627451 0.29803921568627451 0.29803921568627451 #
-534 integer_attrib-name_attrib-gen-attrib $-1 -1 $574 $-1 $469 2 1 2 1 1 1 1 1 1 1 1 1 1 1 0 1 1 1 @12 Cut-Extrude1 0 #
-535 loop $-1 -1 -1 $-1 $-1 $489 $469 F unknown #
-536 cone-surface $-1 -1 -1 $-1 -2.4440369371901941e-013 5 35.000000000000007 -0 -1 -0 0 0 -2.2500000000000018 1 I I 0 1 2.2500000000000018 forward I I I I #
-537 coedge $-1 -1 -1 $-1 $471 $564 $542 $575 reversed $394 $-1 #
-538 edge $-1 -1 -1 $-1 $513 -0 $576 0.0050000000000000001 $510 $577 forward @7 unknown F #
-539 edge $-1 -1 -1 $-1 $520 1.2246467991473535e-016 $522 3.1415926535897931 $479 $578 forward @7 unknown F #
-540 point $-1 -1 -1 $-1 4.8985871965894122e-015 0 39.999999999999993 #
-541 loop $-1 -1 -1 $-1 $463 $551 $125 F unknown #
-542 coedge $-1 -1 -1 $-1 $478 $478 $537 $575 forward $400 $-1 #
-543 coedge $-1 -1 -1 $-1 $511 $510 $478 $544 reversed $407 $-1 #
-544 edge $-1 -1 -1 $-1 $579 -3.1415926535897931 $576 0 $478 $580 forward @7 unknown F #
-545 ellipse-curve $-1 -1 -1 $-1 0 0 -35.000000000000007 0 1 0 0 0 2.2500000000000018 1 I I #
-546 ellipse-curve $-1 -1 -1 $-1 0 0 0 0 1 0 0 0 39.999999999999993 1 I I #
-547 point $-1 -1 -1 $-1 0 0 -39.999999999999993 #
-548 rgb_color-st-attrib $-1 -1 $-1 $485 $406 2 1 2 1 1 1 1 1 1 1 1 1 1 1 0 1 1 1 0.29803921568627451 0.29803921568627451 0.29803921568627451 #
-549 integer_attrib-name_attrib-gen-attrib $-1 -1 $581 $-1 $486 2 1 2 1 1 1 1 1 1 1 1 1 1 1 0 1 1 1 @12 Cut-Extrude1 0 #
-550 cone-surface $-1 -1 -1 $-1 0 5 0 -0 -1 -0 0 0 -39.999999999999993 1 I I 0 1 39.999999999999993 forward I I I I #
-551 coedge $-1 -1 -1 $-1 $582 $582 $488 $552 forward $541 $-1 #
-552 edge $-1 -1 -1 $-1 $557 -3.1415926535897931 $555 1.2246467991471553e-016 $551 $583 forward @7 unknown F #
-553 coedge $-1 -1 -1 $-1 $491 $489 $493 $559 forward $535 $-1 #
-554 coedge $-1 -1 -1 $-1 $489 $491 $582 $584 reversed $535 $-1 #
-555 vertex $-1 -1 -1 $-1 $490 $585 #
-556 straight-curve $-1 -1 -1 $-1 -2.441281481892113e-013 5 37.250000000000014 -0 -1000 -0 I I #
-557 vertex $-1 -1 -1 $-1 $584 $586 #
-558 straight-curve $-1 -1 -1 $-1 -2.4440369371901941e-013 5 32.750000000000007 -0 -1000 -0 I I #
-559 edge $-1 -1 -1 $-1 $495 1.2246467991471553e-016 $494 3.1415926535897931 $553 $587 forward @7 unknown F #
-560 point $-1 -1 -1 $-1 -2.4440369371901941e-013 5 32.750000000000007 #
-561 point $-1 -1 -1 $-1 -2.441281481892113e-013 5 37.250000000000014 #
-562 ellipse-curve $-1 -1 -1 $-1 -30.310889132455163 0 -17.500000000000359 0 1 0 0 0 2.2500000000000018 1 I I #
-563 rgb_color-st-attrib $-1 -1 $-1 $505 $427 2 1 2 1 1 1 1 1 1 1 1 1 1 1 0 1 1 1 0.84313725490196079 0.81568627450980391 0.75294117647058822 #
-564 coedge $-1 -1 -1 $-1 $537 $508 $511 $566 forward $394 $-1 #
-565 ellipse-curve $-1 -1 -1 $-1 30.310889132455397 5 -17.499999999999943 0 1 0 0 0 2.2499999999999987 1 I I #
-566 edge $-1 -1 -1 $-1 $512 -0 $579 0.0050000000000000001 $564 $588 forward @7 unknown F #
-567 point $-1 -1 -1 $-1 30.310889132455397 5 -19.74999999999994 #
-568 point $-1 -1 -1 $-1 30.310889132455397 5 -15.249999999999945 #
-569 straight-curve $-1 -1 -1 $-1 0 5 -39.999999999999993 -0 -1000 -0 I I #
-570 point $-1 -1 -1 $-1 2.7554552980815428e-016 0 -32.750000000000007 #
-571 point $-1 -1 -1 $-1 0 0 -37.250000000000014 #
-572 ellipse-curve $-1 -1 -1 $-1 30.31088913245528 0 17.500000000000146 0 1 0 0 0 2.2500000000000018 1 I I #
-573 rgb_color-st-attrib $-1 -1 $-1 $531 $461 2 1 2 1 1 1 1 1 1 1 1 1 1 1 0 1 1 1 0.29803921568627451 0.29803921568627451 0.29803921568627451 #
-574 rgb_color-st-attrib $-1 -1 $-1 $534 $469 2 1 2 1 1 1 1 1 1 1 1 1 1 1 0 1 1 1 0.29803921568627451 0.29803921568627451 0.29803921568627451 #
-575 edge $-1 -1 -1 $-1 $576 0 $579 3.1415926535897931 $542 $589 forward @7 unknown F #
-576 vertex $-1 -1 -1 $-1 $538 $590 #
-577 straight-curve $-1 -1 -1 $-1 30.310889132455397 5 -15.249999999999945 -0 -1000 -0 I I #
-578 ellipse-curve $-1 -1 -1 $-1 0 0 -35.000000000000007 0 1 0 0 0 2.2500000000000018 1 I I #
-579 vertex $-1 -1 -1 $-1 $575 $591 #
-580 ellipse-curve $-1 -1 -1 $-1 30.310889132455397 0 -17.499999999999943 0 1 0 0 0 2.2499999999999987 1 I I #
-581 rgb_color-st-attrib $-1 -1 $-1 $549 $486 2 1 2 1 1 1 1 1 1 1 1 1 1 1 0 1 1 1 0.29803921568627451 0.29803921568627451 0.29803921568627451 #
-582 coedge $-1 -1 -1 $-1 $551 $551 $554 $584 forward $541 $-1 #
-583 ellipse-curve $-1 -1 -1 $-1 -2.4440369371901941e-013 0 35.000000000000007 0 1 0 0 0 2.2500000000000018 1 I I #
-584 edge $-1 -1 -1 $-1 $555 1.2246467991471553e-016 $557 3.1415926535897931 $582 $592 forward @7 unknown F #
-585 point $-1 -1 -1 $-1 -2.441281481892113e-013 0 37.250000000000014 #
-586 point $-1 -1 -1 $-1 -2.4440369371901941e-013 0 32.750000000000007 #
-587 ellipse-curve $-1 -1 -1 $-1 -2.4440369371901941e-013 5 35.000000000000007 0 1 0 0 0 2.2500000000000018 1 I I #
-588 straight-curve $-1 -1 -1 $-1 30.310889132455397 5 -19.74999999999994 -0 -1000 -0 I I #
-589 ellipse-curve $-1 -1 -1 $-1 30.310889132455397 0 -17.499999999999943 0 1 0 0 0 2.2499999999999987 1 I I #
-590 point $-1 -1 -1 $-1 30.310889132455397 0 -15.249999999999945 #
-591 point $-1 -1 -1 $-1 30.310889132455397 0 -19.74999999999994 #
-592 ellipse-curve $-1 -1 -1 $-1 -2.4440369371901941e-013 0 35.000000000000007 0 1 0 0 0 2.2500000000000018 1 I I #
End-of-ACIS-data 